<svg xmlns="http://www.w3.org/2000/svg" viewBox="0 0 32 32">
  <rect width="32" height="32" rx="8" fill="#05192E"/>
  <g transform="translate(1.8 7) scale(0.4303)"><path d="M3.6 1.1Q3.9 1.3 4.1 2Q4.3 2.8 4.8 3Q5.3 3.2 5.2 3.8Q5 4.3 5.7 4.9Q6.4 5.6 6.5 6.1Q6.7 6.7 7.6 7.2Q8.6 7.8 9.6 7.8Q10.6 7.8 11.3 8.3Q12.1 8.9 12.8 10.6Q13.6 12.4 14 12.6Q14.3 12.9 15.3 12.8Q16.2 12.8 16.7 12.2Q17.2 11.7 17.3 10.6Q17.3 9.6 18 8.5Q18.6 7.5 19.5 8.1Q20.4 8.8 20.9 9.7Q21.4 10.6 23 11Q24.5 11.4 25.6 11.3Q26.6 11.3 27.3 10.1Q28 8.9 28.8 9.9Q29.7 10.8 30.9 11.3Q32.2 11.8 33.7 11.5Q35.2 11.3 35.4 10.8Q35.6 10.3 36.7 10.6Q37.7 11 38.9 11.9Q40.1 12.8 40.8 12.9Q41.6 13.1 42.2 13.7Q42.8 14.3 43 14.2Q43.3 14.2 43.6 14.7Q43.9 15.3 44.2 15.2Q44.5 15.1 45.7 16.2Q46.9 17.2 48.1 17.6Q49.3 18 50 19.1Q50.6 20.3 51.8 21.4Q52.9 22.5 52.9 24.3Q52.9 26.2 51.8 26Q50.7 25.8 50 25.2Q49.2 24.7 48.2 24.6Q47.3 24.5 47 23.9Q46.7 23.3 46.4 23.4Q46.2 23.4 46.4 23.6Q46.6 23.7 46.1 23.7Q45.6 23.7 45.5 24.1Q45.3 24.5 45.7 25.4Q46.2 26.2 45.8 26.6Q45.5 26.9 46.2 26.9Q47 26.9 47.3 27.4Q47.7 27.9 47.6 28.3Q47.5 28.7 47 28.5Q46.4 28.3 46.6 28.8Q46.7 29.4 46.4 29.6Q46.2 29.8 46.6 30.9Q47.1 31.9 46.4 32Q45.7 32 45.2 32.9Q44.6 33.8 44.2 34.1Q43.7 34.4 43.4 34Q43.1 33.7 43.3 33.3Q43.5 32.9 43.2 31.5Q42.8 30.2 41.8 29.9Q40.8 29.5 39.8 30.1Q38.8 30.6 37.9 30.7Q37 30.8 36.4 30Q35.8 29.3 36.2 28.1Q36.6 26.9 36.4 26.8Q36.2 26.6 35.6 27.2Q35.1 27.7 34.9 27.5Q34.7 27.2 34.8 26.7Q34.9 26.2 35.4 25.9Q35.8 25.7 35.4 25Q35.1 24.3 34.9 24.5Q34.8 24.7 34.9 24.4Q34.9 24.1 34.7 24Q34.4 23.9 34 24.3Q33.7 24.7 33.2 24.8Q32.7 24.8 32.2 24.1Q31.6 23.4 31.3 24Q31.1 24.5 30.8 24.5Q30.5 24.4 29.4 23.1Q28.3 21.8 28 22.3Q27.7 22.9 28.1 23.3Q28.4 23.7 27.7 23.7Q27 23.7 26.8 23.4Q26.5 23 25.6 22.7Q24.7 22.5 23.5 22.6Q22.3 22.7 22.5 24.2Q22.7 25.7 23.4 25.9Q24 26.2 23.4 26.8Q22.7 27.5 22.5 27.2Q22.2 26.9 21.4 27.2Q20.5 27.5 20 27Q19.6 26.6 19.1 26.6Q18.7 26.6 18.2 26.2Q17.8 25.8 17.6 24.8Q17.3 23.9 16.4 23.4Q15.4 23 15.5 22.4Q15.7 21.8 15.3 20Q15 18.3 14.2 17.8Q13.5 17.3 12.9 17.4Q12.4 17.5 11.8 16.7Q11.3 15.8 9.9 15.5Q8.5 15.3 8.5 14.5Q8.5 13.7 7 11Q5.4 8.3 5.4 7.7Q5.3 7.1 4.5 6.6Q3.8 6.1 3.5 4.8Q3.2 3.5 2.1 2.7Q1 1.8 2 1.9Q2.9 2 3.1 1.5Q3.4 1 3.6 1.1ZM25.9 27.4Q27.7 27.6 29.3 28.6Q30.9 29.5 31 29.8Q31.1 30.1 30.6 30.4Q30.1 30.8 30.1 31.5Q30.1 32.3 29.7 32.4Q29.3 32.6 29.3 32.9Q29.4 33.3 29.7 33.2Q30 33.1 29.7 33Q29.5 32.9 30.8 32.8Q32 32.7 32.4 32.4Q32.9 32 32.9 32.5Q32.9 33 33.3 33.8Q33.8 34.7 33.2 35Q32.6 35.4 32.5 35.7Q32.4 36 32.9 36.3Q33.3 36.5 33.3 36.8Q33.4 37.2 32.3 37.4Q31.2 37.7 31.2 38Q31.2 38.3 31.8 38.5Q32.3 38.8 32.3 39.4Q32.3 39.9 32 40Q31.6 40.1 31.3 40.5Q31.1 41 30.7 40.9Q30.4 40.8 30.7 39.6Q31.1 38.5 30 38Q29 37.4 29 37Q29 36.6 28.4 36.2Q27.7 35.8 26.8 33.9Q25.8 32 24.8 31.7Q23.7 31.3 23.8 30.6Q23.9 29.8 23.4 29.3Q23 28.8 23.1 28.4Q23.2 27.9 23.6 27.5Q24.1 27.2 25.9 27.4ZM8.1 19.8Q8.5 20 8.2 20.7Q7.9 21.4 8.1 21.9Q8.2 22.5 8.7 22.9Q9.2 23.3 9 25.4Q8.9 27.5 8.5 27.9Q8.1 28.3 8.6 29.1Q9.2 29.8 9 30.4Q8.9 31.1 8 30.7Q7.1 30.4 7.2 29.3Q7.4 28.3 6.8 27.8Q6.3 27.3 5.2 27.3Q4.2 27.2 4.5 26.6Q4.7 26.1 4.7 25.5Q4.6 25 4.4 24.1Q4.2 23.3 3.7 23.2Q3.2 23 4.9 22.6Q6.5 22.2 7.2 20.9Q7.8 19.6 8.1 19.8ZM46.6 5.2Q48.4 5.4 49.2 6.6Q50 7.8 50.9 8Q51.8 8.2 51.9 8.9Q52 9.6 50.9 9.3Q49.9 9 49.1 9.5Q48.2 9.9 47.6 9.9Q47 9.9 46 9.5Q44.9 9.2 44.4 8.3Q43.9 7.5 42.7 6.5Q41.5 5.6 43.2 5.2Q44.9 4.9 46.6 5.2ZM62.2 15.4Q62.4 15.7 62.7 15.4Q63.1 15.1 64 15.8Q65 16.5 64.9 17.2Q64.7 17.9 63.8 18.5Q62.8 19.1 63.2 20.3Q63.6 21.4 64.3 21.5Q65 21.6 65 22Q65 22.3 62.9 22.3Q60.8 22.3 60.4 21Q60 19.7 58.3 18.7Q56.5 17.8 56.5 17.3Q56.5 16.8 57 16.5Q57.5 16.2 58.9 16.8Q60.3 17.3 60.6 17.9Q60.8 18.5 61.4 18.5Q62 18.5 62.4 17.8Q62.9 17.2 62.3 16.4Q61.7 15.7 61.8 15.4Q62 15.1 62.2 15.4Z" fill="#E1A83A"/></g>
</svg>
